<svg xmlns="http://www.w3.org/2000/svg" xmlns:xlink="http://www.w3.org/1999/xlink"><defs>
    <linearGradient id="paint0_linear_456_1012" x1="5.85606" y1="28.5663" x2="28.8367" y2="5.58564" gradientUnits="userSpaceOnUse">
      <stop stop-color="#7381FD"/>
      <stop offset="1" stop-color="#76C7FF"/>
    </linearGradient>
  </defs><symbol id="icon-card" viewBox="0 0 780 500"><g transform="translate(15 15)"><path d="m709.241 1h-669.485c-21.128 0-38.256 16.705-38.256 37.31v391.756c0 20.604 17.128 37.31 38.256 37.31h669.485c21.132 0 38.259-16.705 38.259-37.31v-391.756c0-20.605-17.127-37.31-38.259-37.31z" fill="none" stroke="#393939" stroke-width="30"/><g fill-opacity=".196"><path d="m677.65 276.44h4.016l.384 10.516h10.945l-10.12-23.386 3.796-1.609 11.165 25.315v3.219h-15.73v9.009h-4.456v-9.009h-4.893v-3.539h4.893zm-23.625-14.479c3.851 0 7.534 1.287 10.726 4.29l-2.477 2.735c-2.529-2.306-4.785-3.431-8.028-3.431-4.015 0-7.205 2.197-7.205 6.273 0 4.452 3.576 6.491 7.205 6.491h2.255l.55 3.54h-3.19c-4.454 0-7.862 1.716-7.862 7.022 0 4.615 3.133 7.563 8.468 7.563 3.082 0 6.271-1.232 8.414-3.698l3.079 2.466c-2.858 3.432-7.368 4.882-11.604 4.882-7.808 0-13.144-4.826-13.144-11.213 0-5.733 4.181-8.739 8.636-9.062-4.016-.752-7.425-4.13-7.425-8.579-.001-5.042 4.509-9.279 11.602-9.279zm-32.973 0c5.112 0 8.524 1.771 11.548 5.31l-3.189 2.361c-2.421-2.738-4.454-3.917-8.193-3.917-4.236 0-6.766 2.575-6.766 6.706 0 6.06 3.078 10.081 17.377 23.437v3.646h-22.492l-.549-3.807h17.817c-12.483-11.103-16.937-16.629-16.937-23.383 0-5.901 4.232-10.353 11.384-10.353zm-34.681.644 11.218 6.757-1.981 3.164-8.688-5.095v28.426h9.352v3.646h-21.834v-3.646h7.919v-33.252zm-73.593 13.835h4.014l.385 10.516h10.944l-10.119-23.386 3.793-1.609 11.164 25.315v3.219h-15.726v9.009h-4.455v-9.009h-4.896v-3.539h4.896zm-23.625-14.479c3.849 0 7.531 1.287 10.722 4.29l-2.475 2.735c-2.529-2.306-4.784-3.431-8.028-3.431-4.016 0-7.204 2.197-7.204 6.273 0 4.452 3.574 6.491 7.204 6.491h2.255l.55 3.54h-3.19c-4.454 0-7.864 1.716-7.864 7.022 0 4.615 3.135 7.563 8.471 7.563 3.077 0 6.268-1.232 8.413-3.698l3.08 2.466c-2.86 3.432-7.37 4.882-11.604 4.882-7.812 0-13.145-4.826-13.145-11.213 0-5.733 4.18-8.739 8.634-9.062-4.015-.752-7.425-4.13-7.425-8.579 0-5.042 4.51-9.279 11.606-9.279zm-32.977 0c5.116 0 8.525 1.771 11.55 5.31l-3.191 2.361c-2.418-2.738-4.452-3.917-8.192-3.917-4.233 0-6.765 2.575-6.765 6.706 0 6.06 3.08 10.081 17.378 23.437v3.646h-22.492l-.549-3.807h17.817c-12.485-11.103-16.939-16.629-16.939-23.383 0-5.901 4.233-10.353 11.383-10.353zm-34.678.644 11.218 6.757-1.98 3.164-8.688-5.095v28.426h9.349v3.646h-21.833v-3.646h7.921v-33.252zm-73.594 13.835h4.014l.385 10.516h10.944l-10.119-23.386 3.796-1.609 11.162 25.315v3.219h-15.729v9.009h-4.453v-9.009h-4.895v-3.539h4.895zm-23.626-14.479c3.85 0 7.536 1.287 10.725 4.29l-2.476 2.735c-2.53-2.306-4.785-3.431-8.03-3.431-4.014 0-7.204 2.197-7.204 6.273 0 4.452 3.574 6.491 7.204 6.491h2.256l.55 3.54h-3.19c-4.456 0-7.866 1.716-7.866 7.022 0 4.615 3.136 7.563 8.47 7.563 3.08 0 6.269-1.232 8.416-3.698l3.079 2.466c-2.86 3.432-7.368 4.882-11.604 4.882-7.81 0-13.143-4.826-13.143-11.213 0-5.733 4.18-8.739 8.634-9.062-4.015-.752-7.424-4.13-7.424-8.579 0-5.042 4.51-9.279 11.603-9.279zm-32.974 0c5.114 0 8.523 1.771 11.548 5.31l-3.189 2.361c-2.42-2.738-4.456-3.917-8.194-3.917-4.234 0-6.765 2.575-6.765 6.706 0 6.06 3.081 10.081 17.378 23.437v3.646h-22.493l-.549-3.807h17.817c-12.482-11.103-16.938-16.629-16.938-23.383.001-5.901 4.236-10.353 11.385-10.353zm-34.679.644 11.219 6.757-1.979 3.164-8.689-5.095v28.426h9.349v3.646h-21.834v-3.646h7.919v-33.252zm-73.595 13.835h4.015l.385 10.516h10.944l-10.119-23.386 3.793-1.609 11.165 25.315v3.219h-15.729v9.009h-4.455v-9.009h-4.894v-3.539h4.894v-10.516zm-23.625-14.479c3.849 0 7.533 1.287 10.723 4.29l-2.473 2.735c-2.53-2.306-4.785-3.431-8.029-3.431-4.016 0-7.205 2.197-7.205 6.273 0 4.452 3.575 6.491 7.205 6.491h2.254l.55 3.54h-3.189c-4.454 0-7.864 1.716-7.864 7.022 0 4.615 3.134 7.563 8.469 7.563 3.08 0 6.269-1.232 8.414-3.698l3.079 2.466c-2.859 3.432-7.369 4.882-11.602 4.882-7.81 0-13.145-4.826-13.145-11.213 0-5.733 4.18-8.739 8.635-9.062-4.016-.752-7.425-4.13-7.425-8.579-.001-5.042 4.509-9.279 11.603-9.279zm-32.974 0c5.115 0 8.524 1.771 11.548 5.31l-3.19 2.361c-2.419-2.738-4.454-3.917-8.194-3.917-4.234 0-6.765 2.575-6.765 6.706 0 6.06 3.08 10.081 17.379 23.437v3.646h-22.492l-.551-3.807h17.818c-12.483-11.103-16.938-16.629-16.938-23.383.001-5.901 4.235-10.353 11.385-10.353zm-34.68.644 11.219 6.757-1.98 3.164-8.688-5.095v28.426h9.349v3.646h-21.834v-3.646h7.919v-33.252z"/><path d="m698.27 366.58v-2.515c-2.429-.229-4.122-.613-5.081-1.146-.96-.548-1.676-1.829-2.15-3.846h-2.652v25.979h3.588v-18.472zm-21.297 0v-2.515c-2.428-.229-4.12-.613-5.08-1.146-.959-.548-1.675-1.829-2.146-3.846h-2.656v25.979h3.589v-18.472h6.296zm-29.437 18.472c-.126-2.247-.6-4.202-1.422-5.866-.834-1.664-2.453-3.177-4.857-4.536l-3.584-2.021c-1.608-.912-2.736-1.688-3.382-2.333-1.023-1.009-1.533-2.16-1.533-3.463 0-1.517.468-2.719 1.402-3.606.935-.899 2.178-1.349 3.736-1.349 2.303 0 3.896.851 4.781 2.551.474.912.735 2.174.783 3.789h3.421c-.038-2.271-.467-4.124-1.29-5.556-1.457-2.525-4.027-3.789-7.714-3.789-3.065 0-5.301.807-6.708 2.423-1.418 1.616-2.13 3.414-2.13 5.393 0 2.091.754 3.875 2.261 5.355.873.862 2.436 1.907 4.689 3.135l2.561 1.383c1.22.655 2.178 1.282 2.876 1.878 1.245 1.057 2.029 2.23 2.351 3.517h-14.606v3.096h18.365zm-30.038.711c3.163 0 5.459-.845 6.892-2.533 1.42-1.699 2.131-3.764 2.131-6.191h-3.513c-.149 1.686-.474 2.914-.971 3.678-.872 1.372-2.447 2.058-4.728 2.058-1.769 0-3.188-.461-4.257-1.385-1.072-.92-1.606-2.11-1.606-3.569 0-1.798.564-3.055 1.696-3.771 1.123-.717 2.685-1.074 4.691-1.074.223 0 .453.007.69.019.226 0 .455.007.692.019v-2.896c-.351.036-.643.06-.878.072-.237.013-.493.02-.766.02-1.258 0-2.293-.196-3.103-.585-1.421-.681-2.13-1.895-2.13-3.645 0-1.298.475-2.301 1.421-3.005.945-.704 2.048-1.057 3.306-1.057 2.24 0 3.791.727 4.651 2.186.473.803.741 1.945.805 3.427h3.323c0-1.943-.398-3.597-1.194-4.957-1.372-2.429-3.781-3.643-7.229-3.643-2.728 0-4.839.595-6.335 1.785-1.492 1.178-2.241 2.891-2.241 5.138 0 1.604.442 2.903 1.325 3.898.549.619 1.26 1.105 2.132 1.457-1.407.376-2.503 1.105-3.287 2.188-.798 1.067-1.197 2.379-1.197 3.936 0 2.488.842 4.517 2.524 6.084 1.681 1.562 4.066 2.346 7.156 2.346zm-26.694-7.36c-.225 1.87-1.115 3.164-2.67 3.88-.799.364-1.719.546-2.765.546-1.994 0-3.47-.618-4.428-1.857-.962-1.238-1.44-2.612-1.44-4.118 0-1.821.573-3.23 1.72-4.225 1.133-.997 2.497-1.495 4.092-1.495 1.157 0 2.153.218 2.987.655.822.438 1.526 1.045 2.112 1.822l2.914-.164-2.039-14.046h-13.896v3.169h11.376l1.139 7.252c-.622-.462-1.213-.808-1.772-1.039-.998-.4-2.151-.603-3.458-.603-2.452 0-4.533.772-6.238 2.316-1.708 1.54-2.559 3.496-2.559 5.865 0 2.466.782 4.64 2.353 6.522 1.558 1.881 4.047 2.823 7.474 2.823 2.178 0 4.109-.594 5.789-1.786 1.668-1.201 2.603-3.041 2.803-5.519h-3.494zm-26.973-8.508c-1.482 0-2.642-.399-3.477-1.201-.834-.814-1.252-1.78-1.252-2.897 0-.974.401-1.865 1.195-2.678.798-.813 2.014-1.221 3.644-1.221 1.619 0 2.79.407 3.512 1.221.724.812 1.084 1.767 1.084 2.858 0 1.229-.466 2.186-1.4 2.879s-2.037 1.039-3.306 1.039zm-.207 12.917c-1.556 0-2.845-.408-3.867-1.22-1.033-.828-1.551-2.053-1.551-3.68 0-1.691.531-2.971 1.589-3.845 1.06-.876 2.417-1.312 4.073-1.312 1.605 0 2.921.45 3.939 1.348 1.009.888 1.515 2.118 1.515 3.7 0 1.357-.46 2.538-1.382 3.533-.935.982-2.374 1.476-4.316 1.476zm4.781-11.66c.935-.39 1.663-.846 2.187-1.368.985-.971 1.477-2.233 1.477-3.79 0-1.94-.725-3.609-2.169-5.008-1.444-1.396-3.491-2.095-6.144-2.095-2.566 0-4.577.662-6.036 1.987-1.455 1.309-2.184 2.847-2.184 4.607 0 1.627.423 2.945 1.27 3.953.475.57 1.209 1.13 2.206 1.677-1.108.496-1.981 1.068-2.616 1.711-1.186 1.216-1.773 2.794-1.773 4.738 0 2.295.789 4.244 2.369 5.848 1.584 1.591 3.818 2.387 6.709 2.387 2.602 0 4.805-.686 6.612-2.061 1.794-1.382 2.688-3.388 2.688-6.011 0-1.543-.384-2.872-1.156-3.988-.773-1.129-1.92-1.993-3.44-2.587z"/><path d="m519.2 367.54v-2.515c-2.427-.231-4.121-.611-5.078-1.147-.961-.546-1.678-1.829-2.148-3.844h-2.653v25.98h3.587v-18.474zm-27.569 19.185c3.161 0 5.46-.845 6.893-2.531 1.419-1.702 2.13-3.767 2.13-6.196h-3.513c-.149 1.688-.474 2.916-.971 3.679-.872 1.373-2.447 2.06-4.725 2.06-1.771 0-3.189-.461-4.26-1.385-1.074-.922-1.608-2.112-1.608-3.57 0-1.798.567-3.055 1.701-3.771 1.12-.717 2.683-1.075 4.688-1.075.224 0 .454.008.69.019.226 0 .456.007.69.021v-2.899c-.347.037-.64.062-.877.074-.237.015-.49.018-.765.018-1.258 0-2.292-.194-3.104-.583-1.417-.681-2.127-1.896-2.127-3.643 0-1.3.471-2.303 1.42-3.006.945-.705 2.047-1.057 3.303-1.057 2.244 0 3.795.729 4.653 2.186.475.801.74 1.942.804 3.426h3.325c0-1.943-.399-3.597-1.195-4.956-1.371-2.429-3.781-3.644-7.229-3.644-2.728 0-4.838.594-6.332 1.784-1.494 1.179-2.242 2.89-2.242 5.139 0 1.603.441 2.903 1.325 3.9.549.615 1.26 1.102 2.132 1.456-1.408.377-2.504 1.104-3.29 2.185-.796 1.071-1.195 2.383-1.195 3.937 0 2.49.843 4.517 2.523 6.083 1.681 1.568 4.065 2.353 7.152 2.353h.004zm-12.554-.71c-.123-2.25-.599-4.205-1.42-5.868-.833-1.662-2.454-3.177-4.856-4.536l-3.586-2.022c-1.607-.909-2.733-1.688-3.38-2.331-1.023-1.009-1.534-2.161-1.534-3.461 0-1.518.468-2.722 1.402-3.607.933-.899 2.178-1.349 3.734-1.349 2.305 0 3.899.851 4.782 2.551.474.91.735 2.174.784 3.79h3.42c-.037-2.272-.467-4.125-1.288-5.558-1.457-2.527-4.031-3.787-7.717-3.787-3.063 0-5.299.805-6.705 2.422-1.42 1.615-2.13 3.412-2.13 5.392 0 2.088.753 3.876 2.261 5.356.871.863 2.434 1.906 4.689 3.133l2.558 1.385c1.221.656 2.178 1.281 2.878 1.876 1.244 1.058 2.03 2.229 2.354 3.518h-14.61v3.099zm-23.761-18.475v-2.515c-2.429-.231-4.121-.611-5.08-1.147-.96-.546-1.676-1.829-2.148-3.844h-2.651v25.98h3.584v-18.474zm-38.179 19.185c3.161 0 5.458-.845 6.891-2.531 1.42-1.702 2.129-3.767 2.129-6.196h-3.512c-.147 1.688-.472 2.916-.971 3.679-.87 1.373-2.446 2.06-4.727 2.06-1.768 0-3.188-.461-4.258-1.385-1.072-.922-1.608-2.112-1.608-3.57 0-1.798.568-3.055 1.701-3.771 1.12-.717 2.683-1.075 4.688-1.075.225 0 .453.008.692.019.224 0 .455.007.691.021v-2.899c-.348.037-.643.062-.879.074-.238.015-.492.018-.768.018-1.256 0-2.29-.194-3.098-.583-1.42-.681-2.132-1.896-2.132-3.643 0-1.3.474-2.303 1.421-3.006.945-.705 2.046-1.057 3.307-1.057 2.241 0 3.791.729 4.65 2.186.473.801.74 1.942.804 3.426h3.324c0-1.943-.397-3.597-1.196-4.956-1.369-2.429-3.777-3.644-7.227-3.644-2.728 0-4.839.594-6.334 1.784-1.493 1.179-2.241 2.89-2.241 5.139 0 1.603.442 2.903 1.325 3.9.55.615 1.257 1.102 2.131 1.456-1.408.377-2.503 1.104-3.287 2.185-.797 1.071-1.196 2.383-1.196 3.937 0 2.49.842 4.517 2.521 6.083 1.684 1.564 4.068 2.349 7.159 2.349zm-24.007-9.948v-11.823l8.575 11.823zm-.056 9.238v-6.377h11.731v-3.207l-12.253-16.578h-2.839v16.925h-3.943v2.859h3.943v6.378zm-13.317-6.651c-.225 1.869-1.115 3.162-2.672 3.879-.798.366-1.718.548-2.764.548-1.994 0-3.469-.62-4.429-1.858-.958-1.238-1.438-2.611-1.438-4.116 0-1.823.574-3.233 1.718-4.228 1.134-.996 2.499-1.494 4.091-1.494 1.16 0 2.153.217 2.99.656.821.437 1.524 1.044 2.111 1.822l2.914-.164-2.038-14.047h-13.897v3.17h11.378l1.138 7.252c-.624-.463-1.214-.81-1.774-1.04-.996-.4-2.148-.602-3.457-.602-2.453 0-4.532.771-6.237 2.314-1.707 1.542-2.561 3.497-2.561 5.866 0 2.467.784 4.639 2.354 6.521 1.556 1.884 4.047 2.825 7.472 2.825 2.178 0 4.111-.595 5.791-1.785 1.668-1.202 2.603-3.043 2.804-5.521h-3.494zm-21.296 0c-.225 1.869-1.114 3.162-2.672 3.879-.797.366-1.718.548-2.764.548-1.993 0-3.468-.62-4.428-1.858-.959-1.238-1.437-2.611-1.437-4.116 0-1.823.572-3.233 1.718-4.228 1.133-.996 2.497-1.494 4.091-1.494 1.156 0 2.154.217 2.988.656.821.437 1.527 1.044 2.111 1.822l2.914-.164-2.037-14.047h-13.897v3.17h11.375l1.139 7.252c-.622-.463-1.214-.81-1.776-1.04-.995-.4-2.146-.602-3.454-.602-2.454 0-4.533.771-6.239 2.314-1.707 1.542-2.559 3.497-2.559 5.866 0 2.467.784 4.639 2.353 6.521 1.557 1.884 4.047 2.825 7.472 2.825 2.181 0 4.111-.595 5.792-1.785 1.667-1.202 2.602-3.043 2.802-5.521h-3.495.003z"/></g><path d="m7.5 144.64h732v-95.142h-732z" fill="#393939" stroke="#393939"/><path d="m41.669 166.1h537.5v74.62h-537.5z" fill-opacity=".196"/><path d="m496.92 187.18-9.754 5.877 1.721 2.751 7.555-4.43v24.718h-8.128v3.172h18.983v-3.172h-6.885v-28.916zm27.191-.559c-4.446 0-7.412 1.54-10.044 4.617l2.775 2.052c2.104-2.378 3.874-3.405 7.125-3.405 3.683 0 5.882 2.238 5.882 5.83 0 5.27-2.679 8.769-15.109 20.381v3.172h19.557l.479-3.312h-15.494c10.855-9.653 14.729-14.458 14.729-20.333 0-5.131-3.683-9.002-9.9-9.002zm28.673 0c-3.348 0-6.551 1.12-9.324 3.731l2.151 2.377c2.2-2.005 4.161-2.984 6.981-2.984 3.491 0 6.265 1.911 6.265 5.456 0 3.871-3.107 5.644-6.265 5.644h-1.96l-.479 3.078h2.773c3.874 0 6.84 1.493 6.84 6.109 0 4.011-2.727 6.577-7.365 6.577-2.676 0-5.451-1.073-7.316-3.218l-2.679 2.145c2.488 2.985 6.41 4.244 10.092 4.244 6.791 0 11.428-4.198 11.428-9.748 0-4.989-3.634-7.601-7.507-7.881 3.491-.652 6.456-3.591 6.456-7.462 0-4.384-3.921-8.068-10.091-8.068z" stroke="#393939"/></g></symbol><symbol id="icon-close" viewBox="0 0 20 20"><path d="M.293 18.291a1 1 0 101.414 1.414L10 11.413l8.292 8.292a1 1 0 101.414-1.414l-8.292-8.292 8.292-8.292A1 1 0 1018.291.293L9.999 8.585 1.707.293A1 1 0 10.293 1.707L8.585 10 .293 18.291z" fill="currentColor"/></symbol><symbol id="icon-question" viewBox="0 0 22 22">
<path fill-rule="evenodd" clip-rule="evenodd" d="M11 2C6.02944 2 2 6.02944 2 11C2 15.9706 6.02944 20 11 20C15.9706 20 20 15.9706 20 11C20 6.02944 15.9706 2 11 2ZM0 11C0 4.92487 4.92487 0 11 0C17.0751 0 22 4.92487 22 11C22 17.0751 17.0751 22 11 22C4.92487 22 0 17.0751 0 11ZM11.2582 7.02428C10.7927 6.94443 10.314 7.03191 9.90675 7.27123C9.49955 7.51054 9.19019 7.88625 9.03345 8.33181C8.85018 8.85279 8.27926 9.12657 7.75827 8.9433C7.23728 8.76002 6.96351 8.18911 7.14678 7.66812C7.46025 6.77701 8.07898 6.02559 8.89339 5.54696C9.70779 5.06833 10.6653 4.89337 11.5963 5.05307C12.5274 5.21277 13.3719 5.69682 13.9802 6.41949C14.5884 7.14201 14.9214 8.05644 14.9201 9.00087C14.9197 10.5312 13.7851 11.5419 12.9748 12.082C12.5392 12.3724 12.1107 12.586 11.795 12.7263C11.6358 12.7971 11.5016 12.8508 11.405 12.8876C11.3566 12.906 11.3174 12.9203 11.2888 12.9305L11.2541 12.9426L11.243 12.9464L11.2391 12.9477L11.2376 12.9482C11.2373 12.9483 11.2363 12.9486 10.9201 12L11.2363 12.9486C10.7124 13.1233 10.1461 12.8401 9.97143 12.3162C9.7969 11.7926 10.0796 11.2267 10.6028 11.0516L10.6188 11.046C10.6342 11.0406 10.6594 11.0314 10.693 11.0186C10.7605 10.9929 10.8607 10.9529 10.9827 10.8986C11.2296 10.7889 11.551 10.6275 11.8654 10.4179C12.555 9.95818 12.9201 9.4691 12.9201 8.99996L12.9201 8.99847C12.9208 8.52615 12.7543 8.06883 12.4502 7.70749C12.146 7.34615 11.7238 7.10413 11.2582 7.02428ZM11 15C10.4477 15 10 15.4477 10 16C10 16.5523 10.4477 17 11 17H11.01C11.5623 17 12.01 16.5523 12.01 16C12.01 15.4477 11.5623 15 11.01 15H11Z" fill="currentColor"/>
</symbol><symbol id="logo" viewBox="0 0 139 34">
  <path d="M55.8511 23.3947H59.0155C58.6561 25.3035 57.7988 26.8505 56.4703 27.9434C55.1419 29.0363 53.4322 29.59 51.3922 29.59C49.7359 29.59 48.2569 29.2135 46.9989 28.4728C45.7385 27.7297 44.7476 26.6757 44.0506 25.3375C43.3585 24.0067 43.0063 22.4937 43.0063 20.7767C43.0063 19.0597 43.3585 17.5467 44.0506 16.2158C44.7476 14.8801 45.7385 13.8237 46.9989 13.083C48.2569 12.3422 49.7335 11.9658 51.3922 11.9658C53.4322 11.9658 55.1419 12.5195 56.4703 13.6124C57.7988 14.7052 58.6561 16.2522 59.0155 18.1611H55.8511C55.6228 17.1071 55.1128 16.3445 54.3308 15.7471C53.5463 15.1497 52.5579 14.8437 51.3922 14.8437C49.8743 14.8437 48.6261 15.3974 47.6838 16.4854C46.7293 17.5831 46.2485 19.0062 46.2485 20.7767C46.2485 22.5471 46.7318 23.9678 47.6838 25.068C48.6261 26.156 49.8743 26.7097 51.3922 26.7097C52.5579 26.7097 53.5463 26.4061 54.3308 25.8062C55.1128 25.2112 55.6228 24.4487 55.8511 23.3947Z" fill="#1B2032"/>
  <path d="M68.5953 29.5888C66.3635 29.5888 64.5396 29.0643 63.1796 28.0297C61.8002 26.9805 61.0886 25.5015 61.0643 23.6388L61.0619 23.3935H64.2287L64.2385 23.6243C64.2798 24.5641 64.6829 25.3097 65.4722 25.9047C66.2687 26.5045 67.3179 26.8081 68.5929 26.8081C69.7222 26.8081 70.645 26.5847 71.3348 26.1403C72.0002 25.7128 72.3232 25.1737 72.3232 24.4888C72.3232 23.9011 72.1702 23.4518 71.869 23.1483C71.5533 22.8325 71.1332 22.6115 70.6208 22.4901C70.0743 22.3614 69.2802 22.2303 68.265 22.1015C66.8152 21.9267 65.6082 21.6911 64.678 21.4021C63.7212 21.1058 62.9343 20.625 62.3393 19.9717C61.7322 19.3038 61.4237 18.3834 61.4237 17.2323C61.4237 16.2001 61.72 15.2675 62.3077 14.4637C62.8882 13.6671 63.6896 13.0381 64.6877 12.5961C65.6762 12.1565 66.803 11.9355 68.0367 11.9355C70.05 11.9355 71.716 12.4164 72.991 13.3611C74.2806 14.3204 75.0043 15.7047 75.1403 17.4751L75.1598 18.1624H71.9929L71.9662 17.5237C71.8642 16.7077 71.4756 16.052 70.7786 15.5177C70.0816 14.9834 69.1903 14.7138 68.1339 14.7138C67.0507 14.7138 66.1667 14.9373 65.511 15.3793C64.8747 15.8067 64.5663 16.3483 64.5663 17.0331C64.5663 17.5358 64.7023 17.9098 64.9816 18.1697C65.2755 18.4441 65.6616 18.6335 66.1303 18.7331C66.6355 18.84 67.4199 18.9614 68.4569 19.0901C69.931 19.265 71.1672 19.5127 72.1289 19.8211C73.1197 20.1393 73.9309 20.6614 74.5356 21.3705C75.1525 22.0918 75.4633 23.0705 75.4633 24.2848C75.4633 25.3413 75.1476 26.286 74.5259 27.0923C73.9115 27.8888 73.0712 28.5105 72.0293 28.9404C71.0045 29.3727 69.846 29.5888 68.5953 29.5888Z" fill="#1B2032"/>
  <path d="M95.3364 23.3957H98.5008C98.1414 25.3046 97.2841 26.8516 95.9557 27.9444C94.6273 29.0373 92.9176 29.591 90.8776 29.591C89.2213 29.591 87.7423 29.2146 86.4843 28.4739C85.2238 27.7307 84.233 26.6767 83.536 25.3386C82.8438 24.0077 82.4917 22.4947 82.4917 20.7777C82.4917 19.0607 82.8438 17.5477 83.536 16.2169C84.233 14.8811 85.2238 13.8247 86.4843 13.084C87.7423 12.3433 89.2188 11.9669 90.8776 11.9669C92.9176 11.9669 94.6273 12.5206 95.9557 13.6134C97.2841 14.7063 98.1414 16.2533 98.5008 18.1621H95.3364C95.1081 17.1081 94.5981 16.3456 93.8161 15.7481C93.0317 15.1507 92.0433 14.8447 90.8776 14.8447C89.3597 14.8447 88.1114 15.3984 87.1691 16.4864C86.2147 17.5841 85.7338 19.0073 85.7338 20.7777C85.7338 22.5481 86.2171 23.9689 87.1691 25.069C88.1114 26.157 89.3597 26.7107 90.8776 26.7107C92.0433 26.7107 93.0317 26.4071 93.8161 25.8073C94.5981 25.2123 95.1081 24.4497 95.3364 23.3957Z" fill="#1B2032"/>
  <path d="M106.834 29.5917C104.927 29.5917 103.368 29.1327 102.205 28.2269C101.022 27.3065 100.42 26.0387 100.42 24.4577C100.42 21.1865 103.159 19.1829 106.608 19.1829H112.074V18.0876C112.074 17.0579 111.744 16.2807 111.062 15.7125C110.377 15.1393 109.396 14.8503 108.147 14.8503C107.042 14.8503 106.122 15.0956 105.41 15.5789C104.704 16.0597 104.279 16.6839 104.116 17.4805L104.077 18.1653H100.915L100.947 17.4027C101.151 15.7003 101.918 14.3525 103.227 13.3956C104.522 12.4509 106.222 11.97 108.279 11.97C110.474 11.97 112.201 12.514 113.413 13.5899C114.632 14.673 115.251 16.2419 115.251 18.2527V25.4753C115.251 26.148 115.521 26.4492 116.125 26.4492H117.187V29.395H115.467C114.335 29.395 113.507 29.1522 113.002 28.6713C112.621 28.307 112.373 27.814 112.266 27.1972C110.952 28.7879 109.129 29.5917 106.834 29.5917ZM107.13 21.932C104.774 21.932 103.628 22.578 103.628 24.295C103.628 25.0552 103.919 25.6477 104.519 26.1067C105.129 26.5755 105.974 26.811 107.033 26.811C108.604 26.811 109.852 26.3957 110.744 25.5773C111.628 24.7637 112.077 23.6709 112.077 22.323V21.9296H107.13V21.932Z" fill="#1B2032"/>
  <path d="M118.772 29.3944V12.1661H121.946V14.2984C122.388 13.7325 122.835 13.2614 123.452 12.8898C124.253 12.4089 125.366 12.1661 126.762 12.1661H127.758V15.2746H126.17C124.644 15.2746 123.59 15.7652 122.942 16.7731C122.281 17.8004 121.946 19.0948 121.946 20.6151V29.3919H118.772V29.3944Z" fill="#1B2032"/>
  <path d="M134.346 29.3948C132.709 29.3948 131.517 29.0159 130.805 28.2704C130.096 27.5272 129.737 26.3542 129.737 24.7878V8.17151H132.911V12.1665H137.457V15.1124H132.911V24.7538C132.911 25.3876 133.028 25.8345 133.258 26.0847C133.484 26.3275 133.904 26.4514 134.509 26.4514H137.46V29.3972H134.346V29.3948Z" fill="#1B2032"/>
  <path d="M33.6597 11.9916V29.5696C33.6597 31.68 31.9499 33.3897 29.8395 33.3897H12.2615C10.1511 33.3897 8.44137 31.68 8.44137 29.5696V11.9916C8.44137 9.88113 10.1511 8.17141 12.2615 8.17141H29.8395C31.9499 8.17141 33.6597 9.88113 33.6597 11.9916ZM4.85194 0.761841C2.74151 0.761841 1.0318 2.47156 1.0318 4.58198C1.0318 6.69241 2.74151 8.40213 4.85194 8.40213C6.96237 8.40213 8.67208 6.69241 8.67208 4.58198C8.67208 2.47156 6.96237 0.761841 4.85194 0.761841Z" fill="url(#paint0_linear_456_1012)"/>
  
</symbol></svg>